<svg width="30" height="27" viewBox="0 0 30 27" fill="none" xmlns="http://www.w3.org/2000/svg">
<path d="M22.587 5.99034H24.0696V7.48792C24.0696 7.88511 24.2258 8.26602 24.5038 8.54687C24.7819 8.82773 25.159 8.98551 25.5522 8.98551C25.9454 8.98551 26.3225 8.82773 26.6006 8.54687C26.8786 8.26602 27.0348 7.88511 27.0348 7.48792V5.99034H28.5174C28.9106 5.99034 29.2877 5.83256 29.5658 5.55171C29.8438 5.27085 30 4.88994 30 4.49275C30 4.09557 29.8438 3.71465 29.5658 3.4338C29.2877 3.15295 28.9106 2.99517 28.5174 2.99517H27.0348V1.49758C27.0348 1.1004 26.8786 0.719484 26.6006 0.438632C26.3225 0.157781 25.9454 0 25.5522 0C25.159 0 24.7819 0.157781 24.5038 0.438632C24.2258 0.719484 24.0696 1.1004 24.0696 1.49758V2.99517H22.587C22.1938 2.99517 21.8166 3.15295 21.5386 3.4338C21.2606 3.71465 21.1044 4.09557 21.1044 4.49275C21.1044 4.88994 21.2606 5.27085 21.5386 5.55171C21.8166 5.83256 22.1938 5.99034 22.587 5.99034ZM28.5174 11.9807C28.1242 11.9807 27.7471 12.1385 27.469 12.4193C27.191 12.7002 27.0348 13.0811 27.0348 13.4783V22.4638C27.0348 22.861 26.8786 23.2419 26.6006 23.5227C26.3225 23.8036 25.9454 23.9614 25.5522 23.9614H4.79567C4.40245 23.9614 4.02535 23.8036 3.7473 23.5227C3.46926 23.2419 3.31306 22.861 3.31306 22.4638V8.10193L12.0308 16.9227C12.8648 17.7641 13.9952 18.2366 15.1739 18.2366C16.3526 18.2366 17.4831 17.7641 18.3171 16.9227L21.9791 13.2237C22.2583 12.9417 22.4151 12.5592 22.4151 12.1604C22.4151 11.7616 22.2583 11.3791 21.9791 11.0971C21.6999 10.8151 21.3213 10.6567 20.9264 10.6567C20.5316 10.6567 20.153 10.8151 19.8738 11.0971L16.2118 14.7961C15.9346 15.0705 15.562 15.2242 15.1739 15.2242C14.7858 15.2242 14.4132 15.0705 14.1361 14.7961L5.40353 5.99034H16.6565C17.0497 5.99034 17.4269 5.83256 17.7049 5.55171C17.9829 5.27085 18.1391 4.88994 18.1391 4.49275C18.1391 4.09557 17.9829 3.71465 17.7049 3.4338C17.4269 3.15295 17.0497 2.99517 16.6565 2.99517H4.79567C3.61603 2.99517 2.48471 3.46851 1.65058 4.31107C0.816448 5.15362 0.347839 6.29637 0.347839 7.48792V22.4638C0.347839 23.6553 0.816448 24.7981 1.65058 25.6406C2.48471 26.4832 3.61603 26.9565 4.79567 26.9565H25.5522C26.7318 26.9565 27.8631 26.4832 28.6973 25.6406C29.5314 24.7981 30 23.6553 30 22.4638V13.4783C30 13.0811 29.8438 12.7002 29.5658 12.4193C29.2877 12.1385 28.9106 11.9807 28.5174 11.9807Z" fill="black"/>
</svg>
